<svg width="79" height="66" viewBox="0 0 79 66" fill="none" xmlns="http://www.w3.org/2000/svg">
<g clip-path="url(#clip0_575_92)">
<path d="M78.9999 41.9975C75.4765 35.7927 72.0752 29.785 68.5893 23.6553C67.7531 25.1572 66.9733 26.4995 66.2686 27.8888C66.1276 28.1704 66.1558 28.6773 66.3062 28.9589C66.776 29.8131 67.3397 30.8551 67.941 31.9534C69.6323 35.0511 71.3423 38.1394 73.0711 41.2184C73.0805 41.2371 73.0899 41.2465 73.0899 41.2465L73.5128 41.9975C73.5128 41.9975 74.1705 41.9975 75.0631 41.9975C76.2845 42.0256 77.5436 41.9975 78.9999 41.9975Z" fill="white"/>
<path d="M52.7576 24.2281C51.8744 24.0498 50.963 24.0122 50.061 24.0122C44.2638 23.9934 38.4666 24.0028 32.6693 24.0028C31.7298 24.0028 30.7902 24.0028 29.5405 24.0028C30.4613 25.1574 31.9083 27.0348 31.9083 27.0348L32.7069 27.9735C32.7069 27.9735 44.9121 27.9735 50.418 27.936C51.4422 27.9266 51.8744 28.2833 51.8556 29.344C51.818 31.9349 51.8462 34.2347 51.8462 36.8349C51.8462 38.2523 51.6771 38.4213 50.2865 38.4307C48.2946 38.44 46.2933 38.4307 44.2638 38.4307C44.2638 39.5853 44.245 41.8945 44.245 41.8945C44.245 41.8945 51.8086 42.0071 53.0207 41.8663C54.9562 41.641 56.7978 39.9138 56.9011 37.5201C57.0327 34.535 57.2018 31.8316 57.0327 28.8559C56.873 25.9366 55.6703 24.8101 52.7576 24.2281Z" fill="white"/>
<path d="M6.46426 29.9727C5.17704 29.9727 3.98377 29.9727 2.71533 29.9727C2.71533 34.0091 2.71533 37.9704 2.71533 41.9035C8.11792 41.9035 13.4454 41.9035 18.7728 41.9035C18.7728 40.6645 18.7728 39.5099 18.7728 38.2238C14.6668 38.2238 10.6172 38.2238 6.46426 38.2238C6.46426 35.4077 6.46426 32.7137 6.46426 29.9727Z" fill="white"/>
<path d="M2.09538 27.185C2.16116 27.2976 2.22693 27.3915 2.2927 27.476L2.63095 27.9641H3.54234C3.55174 27.9641 3.57053 27.9641 3.57992 27.9641C3.8524 27.9641 4.13428 27.9641 4.40676 27.9641L17.8897 27.9547H18.9327C18.9327 27.9547 18.9327 27.9265 18.9327 27.8984C18.9327 26.556 18.9327 25.3357 18.9327 24.0591C12.6563 24.0591 6.44565 24.0591 -0.00927734 24.0591C0.789367 25.2043 2.09538 27.185 2.09538 27.185Z" fill="white"/>
<path d="M21.958 41.9692C26.6277 41.9692 31.2223 41.9692 35.8544 41.9692C35.8544 40.7207 35.8544 39.5567 35.8544 38.3364C31.1471 38.3364 26.5432 38.3364 21.958 38.3364C21.958 39.6037 21.958 40.7958 21.958 41.9692Z" fill="white"/>
<path d="M64.7371 30.4233C62.5291 34.3377 60.415 38.0831 58.207 41.9975C59.5788 41.9975 60.8285 42.0163 62.0405 41.9975C62.9989 41.9975 63.7224 41.9975 63.7224 41.9975L64.0043 41.4531C64.8311 39.9981 65.6391 38.5243 66.4284 37.0506C66.6727 36.6 66.8982 36.1776 67.0955 35.8209C67.2364 35.558 67.3492 35.145 67.2364 34.9291C66.4847 33.4553 65.6485 32.0285 64.7371 30.4233Z" fill="white"/>
<path d="M25.7448 24.0591C24.4481 24.0591 23.2173 24.0591 21.9395 24.0591C21.9395 28.1424 21.9395 32.1788 21.9395 36.2622C23.2173 36.2622 24.4481 36.2622 25.7448 36.2622C25.7448 32.1319 25.7448 28.0955 25.7448 24.0591Z" fill="white"/>
<path d="M39.021 41.9129C40.3458 41.9129 41.5955 41.9129 42.8451 41.9129C42.8451 37.8671 42.8451 33.9152 42.8451 29.8882C41.5673 29.8882 40.3364 29.8882 39.021 29.8882C39.021 33.9528 39.021 37.9328 39.021 41.9129Z" fill="white"/>
<path d="M15.757 35.605C16.7435 35.605 17.7395 35.605 18.7448 35.605C18.7448 34.2532 18.7448 33.0048 18.7448 31.7188C15.5784 31.7188 12.4872 31.7188 9.08594 31.7188C10.4389 33.0611 11.604 34.2439 12.7973 35.3985L13.0322 35.605H15.757Z" fill="white"/>
<path d="M51.4425 15.7138L48.6519 19.7972H73.7388L56.9672 0.046935L55.5673 5.17224L34.0696 0L5.8916 19.9943L35.3569 8.35443L51.4425 15.7138Z" fill="#35CB67"/>
<path d="M27.8965 50.2769L30.6776 46.203H5.59082L22.3717 65.9438L23.7623 60.8279L45.2693 66.0002L73.438 46.0059L43.9727 57.6364L27.8965 50.2769Z" fill="#35CB67"/>
</g>
<defs>
<clipPath id="clip0_575_92">
<rect width="79" height="66" fill="white"/>
</clipPath>
</defs>
</svg>
